<svg width="178" height="32" viewBox="0 0 178 32" fill="none" xmlns="http://www.w3.org/2000/svg">
<path d="M16.2092 15.8748L18.1152 18.0175L34.3062 3.81175L48.1958 16.0015L33.1783 29.154H29.6246L44.5114 16.0015L34.3062 7.04706L18.2399 21.1382L12.3788 16.0015L30.6248 0H18.2551L0 16.0015L18.2429 32L36.3369 16.1252L34.4338 13.9855L18.2429 28.1852L4.34717 16.0015L19.3312 2.85806H23.0187L8.03163 16.0015L18.2399 24.9529L34.3062 10.8588L40.1673 16.0015L21.9243 32H34.3183L52.543 16.0015L34.3062 0L16.2092 15.8748Z" fill="white"/>
<path d="M75.1634 8.42325C74.6945 8.14088 74.1554 7.99454 73.607 8.00075H63.7119C63.1644 7.99462 62.6263 8.14098 62.1585 8.42325C61.694 8.69777 61.3053 9.0825 61.0275 9.54292C60.7436 10.0086 60.5962 10.5438 60.602 11.0882V14.3778C60.5934 14.9292 60.7408 15.4718 61.0275 15.9441C61.3044 16.406 61.6932 16.7919 62.1585 17.0668C62.6269 17.3477 63.1646 17.4941 63.7119 17.4894H73.4733C73.5432 17.4872 73.6114 17.5109 73.6648 17.5558C73.6903 17.5779 73.7106 17.6053 73.7243 17.6361C73.7379 17.6668 73.7446 17.7002 73.7438 17.7338V20.779C73.744 20.8143 73.7372 20.8493 73.7236 20.882C73.71 20.9146 73.69 20.9443 73.6648 20.9691C73.6395 20.9938 73.6096 21.0131 73.5767 21.0261C73.5438 21.0391 73.5087 21.0454 73.4733 21.0446H63.8244C63.7891 21.045 63.7542 21.0384 63.7215 21.0252C63.6889 21.012 63.6592 20.9924 63.6343 20.9677C63.6094 20.9429 63.5896 20.9135 63.5763 20.8811C63.563 20.8487 63.5564 20.814 63.5568 20.779V19.6895H60.602V20.9118C60.5957 21.4562 60.7431 21.9915 61.0275 22.457C61.3044 22.9189 61.6932 23.3048 62.1585 23.5797C62.6269 23.8606 63.1646 24.007 63.7119 24.0023H73.604C74.1522 24.007 74.691 23.8607 75.1605 23.5797C75.6258 23.3048 76.0145 22.9189 76.2913 22.457C76.5744 21.9909 76.7217 21.456 76.7169 20.9118V17.6282C76.7233 17.0771 76.576 16.535 76.2913 16.0619C76.0145 15.5999 75.6258 15.214 75.1605 14.9392C74.691 14.6581 74.1522 14.5118 73.604 14.5166H63.8213C63.7524 14.5186 63.6851 14.4949 63.6328 14.4502C63.6062 14.429 63.5852 14.4018 63.5714 14.3708C63.5577 14.3398 63.5516 14.3059 63.5538 14.2721V11.227C63.5529 11.192 63.5595 11.1573 63.5731 11.125C63.5867 11.0928 63.6071 11.0637 63.6328 11.0398C63.6572 11.0147 63.6865 10.9948 63.7189 10.9813C63.7513 10.9678 63.7862 10.961 63.8213 10.9614H73.4702C73.5058 10.9611 73.541 10.968 73.5739 10.9815C73.6068 10.995 73.6366 11.0148 73.6617 11.0398C73.687 11.0641 73.7071 11.0931 73.7206 11.1253C73.7342 11.1575 73.7411 11.1921 73.7408 11.227V12.3165H76.7169V11.0942C76.7212 10.55 76.574 10.0152 76.2913 9.54896C76.0152 9.0867 75.6276 8.69986 75.1634 8.42325Z" fill="white"/>
<path d="M95.9143 8.42325C95.4465 8.14098 94.9084 7.99462 94.3609 8.00075H84.4658C83.9174 7.99454 83.3783 8.14088 82.9094 8.42325C82.4448 8.69777 82.0562 9.0825 81.7784 9.54292C81.4958 10.0092 81.3485 10.544 81.3529 11.0882V20.9118C81.348 21.456 81.4953 21.9909 81.7784 22.457C82.0553 22.9189 82.4441 23.3048 82.9094 23.5797C83.3788 23.8607 83.9176 24.007 84.4658 24.0023H94.3609C94.9082 24.007 95.4459 23.8606 95.9143 23.5797C96.3796 23.3048 96.7684 22.9189 97.0453 22.457C97.3297 21.9915 97.4771 21.4562 97.4708 20.9118V11.0882C97.4766 10.5438 97.3292 10.0086 97.0453 9.54292C96.7675 9.0825 96.3788 8.69777 95.9143 8.42325ZM94.4947 20.779C94.4947 20.8154 94.4866 20.8514 94.4708 20.8843C94.455 20.9172 94.432 20.9462 94.4035 20.9691C94.348 21.0177 94.2767 21.0445 94.2029 21.0446H84.5783C84.5429 21.0457 84.5076 21.0396 84.4746 21.0266C84.4417 21.0136 84.4118 20.9941 84.3867 20.9691C84.3615 20.9443 84.3415 20.9146 84.328 20.882C84.3144 20.8493 84.3075 20.8143 84.3077 20.779V11.221C84.3085 11.1502 84.3374 11.0827 84.388 11.033C84.4387 10.9833 84.5071 10.9553 84.5783 10.9553H94.2029C94.2771 10.9563 94.3485 10.9842 94.4035 11.0338C94.4319 11.0561 94.4549 11.0846 94.4707 11.117C94.4865 11.1494 94.4947 11.1849 94.4947 11.221V20.779Z" fill="white"/>
<path d="M102.104 23.9992H105.08V17.4894H114.629V14.5106H105.08V10.9554H116.945V7.99774H102.104V23.9992Z" fill="white"/>
<path d="M121.979 8.42324C121.515 8.69777 121.126 9.08249 120.848 9.54291C120.564 10.0086 120.417 10.5438 120.423 11.0882V20.9117C120.416 21.4562 120.564 21.9915 120.848 22.457C121.125 22.9189 121.514 23.3048 121.979 23.5797C122.448 23.8606 122.985 24.007 123.533 24.0023H136.495V21.0446H124.162C124.057 21.0522 123.952 21.0374 123.854 21.0011C123.755 20.9649 123.666 20.908 123.591 20.8345C123.517 20.7609 123.459 20.6724 123.423 20.5748C123.386 20.4772 123.37 20.3729 123.378 20.2689V11.734C123.37 11.628 123.385 11.5217 123.422 11.4219C123.459 11.3221 123.516 11.231 123.59 11.1546C123.747 11.0157 123.952 10.9441 124.162 10.9553H136.495V8.00075H123.533C122.985 7.99462 122.447 8.14097 121.979 8.42324Z" fill="white"/>
<path d="M155.683 8.42325C155.21 8.14152 154.667 7.99532 154.115 8.00075H144.244C143.696 7.99454 143.156 8.14088 142.688 8.42325C142.223 8.69777 141.834 9.0825 141.557 9.54292C141.274 10.0092 141.127 10.544 141.131 11.0882V24.0023H144.086V18.6241H154.273V24.0023H157.249V11.0882C157.255 10.5438 157.107 10.0086 156.823 9.54292C156.544 9.08077 156.152 8.69576 155.683 8.42325ZM154.273 15.6906H144.086V11.221C144.087 11.1502 144.116 11.0827 144.166 11.033C144.217 10.9833 144.285 10.9553 144.356 10.9553H153.981C154.056 10.9555 154.129 10.9835 154.185 11.0338C154.212 11.0567 154.234 11.0854 154.25 11.1177C154.265 11.15 154.273 11.1853 154.273 11.221V15.6906Z" fill="white"/>
<path d="M174.866 18.4884C175.415 18.4933 175.956 18.3515 176.431 18.0779C176.904 17.8086 177.298 17.4217 177.574 16.9552C177.856 16.4854 178.004 15.9479 178 15.401V11.0882C178.004 10.5441 177.857 10.0093 177.574 9.54298C177.292 9.08118 176.899 8.69558 176.431 8.42029C175.958 8.14131 175.416 7.99627 174.866 8.00081H161.882V23.9661H164.837V18.5004H169.509L174.13 23.9782H178L173.37 18.4914H174.866V18.4884ZM165.095 15.5338C165.025 15.5365 164.957 15.5128 164.904 15.4674C164.878 15.4452 164.858 15.4177 164.845 15.3869C164.832 15.3561 164.826 15.3227 164.828 15.2893V11.1999C164.827 11.1648 164.833 11.1299 164.846 11.0972C164.86 11.0646 164.879 11.0349 164.904 11.0098C164.929 10.9848 164.959 10.9652 164.992 10.9522C165.024 10.9392 165.06 10.9332 165.095 10.9343H174.72C174.795 10.9337 174.867 10.9606 174.923 11.0098C174.951 11.0335 174.973 11.0627 174.988 11.0955C175.003 11.1282 175.011 11.1638 175.012 11.1999V15.2893C175.013 15.3238 175.005 15.358 174.99 15.3891C174.974 15.4201 174.952 15.447 174.923 15.4674C174.865 15.5115 174.793 15.5349 174.72 15.5338H165.095Z" fill="white"/>
</svg>
